<?xml version="1.0" encoding="UTF-8"?>
<svg width="36px" height="36px" viewBox="0 0 36 36" version="1.1" xmlns="http://www.w3.org/2000/svg" xmlns:xlink="http://www.w3.org/1999/xlink">
    <title>7660B39B-17FF-4718-8BC2-6B50C8666B73</title>
    <defs>
        <path d="M0,4.75 L4.75,4.75 L4.75,0 L0,0 L0,4.75 Z M7.125,19 L11.875,19 L11.875,14.25 L7.125,14.25 L7.125,19 Z M0,19 L4.75,19 L4.75,14.25 L0,14.25 L0,19 Z M0,11.875 L4.75,11.875 L4.75,7.125 L0,7.125 L0,11.875 Z M7.125,11.875 L11.875,11.875 L11.875,7.125 L7.125,7.125 L7.125,11.875 Z M14.25,0 L14.25,4.75 L19,4.75 L19,0 L14.25,0 Z M7.125,4.75 L11.875,4.75 L11.875,0 L7.125,0 L7.125,4.75 Z M14.25,11.875 L19,11.875 L19,7.125 L14.25,7.125 L14.25,11.875 Z M14.25,19 L19,19 L19,14.25 L14.25,14.25 L14.25,19 Z" id="path-medi_apps"></path>
    </defs>
    <g id="medi_apps" stroke="none" stroke-width="1" fill="none" fill-rule="evenodd">
        <g transform="translate(-610.000000, -6150.000000)" id="medi_apps">
            <g transform="translate(610.000000, 6150.000000)">
                <g id="swatch/blue" transform="translate(8.000000, 8.000000)">
                    <g transform="translate(0.760000, 0.739130)">
                        <mask id="mask-medi_apps" fill="white">
                            <use xlink:href="#path-medi_apps"></use>
                        </mask>
                        <use id="Mask" fill="#000000" fill-rule="nonzero" xlink:href="#path-medi_apps"></use>
                        <g mask="url(#mask-medi_apps)" id="Rectangle">
                            <g transform="translate(-10.000000, -10.000000)">
                                <rect fill="none" x="0" y="0" width="37.44" height="37.5652174"></rect>
                                <rect class="link_image" fill="#2D2D2D" fill-rule="evenodd" x="0" y="0" width="37.44" height="37.5652174"></rect>
                            </g>
                        </g>
                    </g>
                </g>
            </g>
        </g>
    </g>
</svg>