<?xml version="1.0" encoding="UTF-8"?>
<svg width="36px" height="36px" viewBox="0 0 36 36" version="1.1" xmlns="http://www.w3.org/2000/svg" xmlns:xlink="http://www.w3.org/1999/xlink">
    <title>E239800C-E051-440C-AFDE-A4A2E01D7385</title>
    <defs>
        <path d="M9.91935484,20 C12.6551686,20 14.8859338,22.1573989 14.9957622,24.8600231 L15,25.0689655 L15,27 L0,27 L0,25.0689655 C0,22.339441 2.16236988,20.1138039 4.87122134,20.004228 L5.08064516,20 L9.91935484,20 Z M9.91935484,22.4137931 L5.08064516,22.4137931 C3.66529177,22.4137931 2.50799586,23.5161286 2.42421174,24.9072198 L2.41935484,25.0689655 L12.5806452,25.0689655 C12.5806452,23.6568658 11.4757697,22.5022304 10.0814732,22.4186388 L9.91935484,22.4137931 Z M7.5,10 C9.98528137,10 12,12.0147186 12,14.5 C12,16.9852814 9.98528137,19 7.5,19 C5.01471863,19 3,16.9852814 3,14.5 C3,12.0147186 5.01471863,10 7.5,10 Z M25.1325439,0 C30.5199378,0 35,3.28753499 35,7.53611931 C35,11.7847036 30.5199378,15.0722386 25.1325439,15.0722386 C24.1990233,15.0722386 23.2818663,14.9739366 22.4009637,14.7820525 L22.797,14.861 L22.5782658,14.963269 C21.0508326,15.651974 19.4631035,16.2135957 17.8159623,16.6480453 L17.1064098,16.8264516 L16.4696015,16.9719609 C16.1508507,17.0414026 15.8172129,16.9806167 15.5445305,16.803421 C15.1822147,16.5679792 14.9795246,16.1628565 15.0016395,15.7436468 L15.0016395,15.7436468 L15.0097282,15.5903174 L15.1139963,15.2772394 L15.1987084,15.1499393 C15.6989638,14.398186 16.2237121,13.2278299 16.7572503,11.6526412 L16.7572503,11.6526412 L16.7848641,11.569135 L16.6728236,11.4320337 C15.8243825,10.3554635 15.3334037,9.11859763 15.2717108,7.81617806 L15.2717108,7.81617806 L15.2650877,7.53611931 C15.2650877,3.28753499 19.7451499,0 25.1325439,0 Z M7.5,12.3684211 C6.32276145,12.3684211 5.36842105,13.3227615 5.36842105,14.5 C5.36842105,15.6772385 6.32276145,16.6315789 7.5,16.6315789 C8.67723855,16.6315789 9.63157895,15.6772385 9.63157895,14.5 C9.63157895,13.3227615 8.67723855,12.3684211 7.5,12.3684211 Z M25.1325439,2.29765153 C20.905507,2.29765153 17.591533,4.729494 17.591533,7.53611931 C17.591533,8.59179009 18.0532057,9.61320792 18.9262666,10.4907992 L18.9262666,10.4907992 L19.4148888,10.9819569 L19.2066502,11.6390852 C18.954963,12.433322 18.7019694,13.1525563 18.4464873,13.7977862 L18.4464873,13.7977862 L18.3193874,14.1112567 L18.5192668,14.0514319 C19.559862,13.7238103 20.5727014,13.3391652 21.5579392,12.8974783 L21.5579392,12.8974783 L22.1457709,12.6256209 L22.5085951,12.4526247 L22.9020337,12.5383261 C23.6180474,12.694293 24.36719,12.7745871 25.1325439,12.7745871 C29.3595807,12.7745871 32.6735547,10.3427446 32.6735547,7.53611931 C32.6735547,4.729494 29.3595807,2.29765153 25.1325439,2.29765153 Z" id="path-medi_consultation"></path>
    </defs>
    <g id="medi_consultation" stroke="none" stroke-width="1" fill="none" fill-rule="evenodd">
        <g transform="translate(-478.000000, -6150.000000)" id="medi_consultation">
            <g transform="translate(478.000000, 6150.000000)">
                <g id="swatch/blue" transform="translate(1.000000, 6.000000)">
                    <mask id="mask-medi_consultation" fill="white">
                        <use xlink:href="#path-medi_consultation"></use>
                    </mask>
                    <use id="Mask" fill="#2D2D2D" fill-rule="nonzero" xlink:href="#path-medi_consultation"></use>
                    <g mask="url(#mask-medi_consultation)" id="Rectangle">
                        <g transform="translate(-1.000000, -6.000000)">
                            <rect fill="none" x="0" y="0" width="36" height="36"></rect>
                            <rect class="link_image" fill="#2D2D2D" fill-rule="evenodd" x="0" y="0" width="36" height="36"></rect>
                        </g>
                    </g>
                </g>
            </g>
        </g>
    </g>
</svg>