<?xml version="1.0" encoding="UTF-8"?>
<svg width="36px" height="36px" viewBox="0 0 36 36" version="1.1" xmlns="http://www.w3.org/2000/svg" xmlns:xlink="http://www.w3.org/1999/xlink">
    <title>6AD3733E-B054-4691-B5D3-C2DF0482AD56</title>
    <defs>
        <path d="M18.362,1.96019383 L18.362,4.62719383 L2.737,4.62719383 L2.737,23.4271938 L23.263,23.4271938 L23.263,9.74019383 L25.999,9.74019383 L25.999,23.2941938 C25.999,24.7611938 24.768,25.9601938 23.263,25.9601938 L23.263,25.9601938 L2.737,25.9601938 C1.231,25.9601938 0,24.7611938 0,23.2941938 L0,23.2941938 L0,4.62719383 C0,3.16019383 1.231,1.96019383 2.737,1.96019383 L2.737,1.96019383 L18.362,1.96019383 Z M8.89433684,11.2936272 L8.89433684,20.6269605 L6.15749474,20.6269605 L6.15749474,11.2936272 L8.89433684,11.2936272 Z M14.3680211,7.29362716 L14.3680211,20.6269605 L11.6311789,20.6269605 L11.6311789,7.29362716 L14.3680211,7.29362716 Z M19.8417053,15.2936272 L19.8417053,20.6269605 L17.1048632,20.6269605 L17.1048632,15.2936272 L19.8417053,15.2936272 Z M21.022281,-4.4408921e-14 L27.9996,1.79632188 L26.3100052,8.80025095 L24.7614574,6.2230346 C21.666131,8.08289432 20.1037139,10.3905391 19.8779818,13.5205317 C18.6085741,10.005613 18.577297,5.74675037 22.5330593,2.51435742 L21.022281,-4.4408921e-14 Z" id="path-medi_dashboard"></path>
    </defs>
    <g id="medi_dashboard" stroke="none" stroke-width="1" fill="none" fill-rule="evenodd">
        <g transform="translate(-566.000000, -6150.000000)" id="medi_dashboard">
            <g transform="translate(566.000000, 6150.000000)">
                <g id="swatch/blue" transform="translate(4.760000, 4.739130)">
                    <mask id="mask-medi-dashboard" fill="white">
                        <use xlink:href="#path-medi_dashboard"></use>
                    </mask>
                    <use id="Mask" fill="#000000" fill-rule="nonzero" xlink:href="#path-medi_dashboard"></use>
                    <g mask="url(#mask-medi-dashboard)" id="Rectangle">
                        <g transform="translate(-5.000000, -5.000000)">
                            <rect fill="none" x="0" y="0" width="36" height="36"></rect>
                            <rect class="link_image" fill="#2D2D2D" fill-rule="evenodd" x="0" y="0" width="36" height="36"></rect>
                        </g>
                    </g>
                </g>
            </g>
        </g>
    </g>
</svg>