<?xml version="1.0" encoding="UTF-8"?>
<svg width="24px" height="24px" viewBox="0 0 24 24" version="1.1" xmlns="http://www.w3.org/2000/svg" xmlns:xlink="http://www.w3.org/1999/xlink">
    <defs>
        <path d="M9,16 L11,16 L11,14 L9,14 L9,16 Z M10,0 C4.48,0 0,4.48 0,10 C0,15.52 4.48,20 10,20 C15.52,20 20,15.52 20,10 C20,4.48 15.52,0 10,0 Z M10,18 C5.59,18 2,14.41 2,10 C2,5.59 5.59,2 10,2 C14.41,2 18,5.59 18,10 C18,14.41 14.41,18 10,18 Z M10,4 C7.79,4 6,5.79 6,8 L8,8 C8,6.9 8.9,6 10,6 C11.1,6 12,6.9 12,8 C12,10 9,9.75 9,13 L11,13 C11,10.75 14,10.5 14,8 C14,5.79 12.21,4 10,4 Z" id="help-path-1"></path>
    </defs>
    <g id="helpMain" stroke="none" stroke-width="1" fill="none" fill-rule="evenodd">
        <g transform="translate(-371.000000, -6335.000000)" id="help">
            <g transform="translate(371.000000, 6335.000000)">
                <g id="swatch/blue" transform="translate(2.000000, 2.000000)">
                    <mask id="help-mask-2" fill="white">
                        <use xlink:href="#help-path-1"></use>
                    </mask>
                    <use id="help-mask" fill="#000000" fill-rule="nonzero" xlink:href="#help-path-1"></use>
                    <g mask="url(#help-mask-2)" id="Rectangle">
                        <g transform="translate(-2.000000, -2.000000)">
                            <rect fill="none" x="0" y="0" width="24" height="24"></rect>
                            <rect class="small_link_image" fill="#2D2D2D" fill-rule="evenodd" x="0" y="0" width="24" height="24"></rect>
                        </g>
                    </g>
                </g>
                <polygon id="help-path" points="0 0 24 0 24 24 0 24"></polygon>
            </g>
        </g>
    </g>
</svg>