<?xml version="1.0" encoding="iso-8859-1"?>
<!-- Generator: Adobe Illustrator 16.0.0, SVG Export Plug-In . SVG Version: 6.00 Build 0)  -->
<!DOCTYPE svg PUBLIC "-//W3C//DTD SVG 1.1//EN" "http://www.w3.org/Graphics/SVG/1.1/DTD/svg11.dtd">
<svg version="1.1" id="Capa_1" xmlns="http://www.w3.org/2000/svg" xmlns:xlink="http://www.w3.org/1999/xlink" x="0px" y="0px"
	 width="560.777px" height="560.777px" viewBox="0 0 560.777 560.777" style="enable-background:new 0 0 560.777 560.777;"
	 xml:space="preserve">
<g>
	<path d="M466.254,354.459c-52.122,0-94.526,42.405-94.526,94.519c0,52.122,42.404,94.526,94.526,94.526
		s94.522-42.404,94.522-94.526C560.777,396.859,518.376,354.459,466.254,354.459z M482.86,394.727
		c2.786-9.077,6.1-20.003,1.891-31.008c31.736,6.88,57.083,31.069,65.628,62.156c-3.784-0.032-7.719,0.01-11.821,0.061
		c-17.366,0.201-37.057,0.416-50.105-5.675C477.283,414.8,478.753,408.121,482.86,394.727z M389.383,489.688l-0.191,0.153
		c-6.492-12.199-10.193-26.103-10.193-40.869c0-24.092,9.82-45.929,25.665-61.741c3.752,1.036,8.513,1.708,13.524,2.418
		c10.711,1.503,24.031,3.379,27.583,9.203c1.194,1.965,1.223,4.485,0.037,7.864c-2.049,6.776-9.353,8.993-17.819,11.564
		c-11.826,3.594-26.546,8.07-25.337,28.567c0.583,7.342,6.501,14.175,12.773,21.408c9.572,11.052,15.532,18.893,11.248,26.91
		c-1.741,3.355-4.896,5.302-9.376,5.769C407.458,501.977,394.457,495.849,389.383,489.688z M510.97,523.855
		c-3.333-4.145-4.63-9.996-4.112-15.271c0.435-4.48,0.934-9.549-0.812-15.35c-2.927-8.396-11.159-13.685-19.121-18.795
		c-6.474-4.14-12.573-8.06-14.179-12.647c-1.157-3.552-0.201-4.681,0.107-5.055c4.387-5.189,26.519-1.881,42.676,0.527
		c16.008,2.395,29.986,4.476,37.388,1.741C549.744,486.557,533.704,510.228,510.97,523.855z M516.598,450.074
		c-21.748-3.248-42.293-6.319-49.298,1.969c-2.576,3.048-3.071,7.08-1.447,12.069c2.465,7.033,9.927,11.817,17.143,16.442
		c6.926,4.443,14.09,9.031,16.134,14.911c1.288,4.28,0.9,8.229,0.49,12.41c-0.598,6.146-1.256,13.091,4.821,19.536
		c-11.547,5.643-24.498,8.82-38.187,8.82c-26.798,0-50.811-12.152-66.828-31.241c4.999,2.04,10.45,3.328,15.616,3.328
		c1.018,0,2.021-0.047,3.011-0.149c6.958-0.732,12.167-4.065,15.056-9.614c6.936-12.993-3.234-24.712-12.19-35.06
		c-5.227-6.025-10.632-12.26-11.023-17.156c-0.821-13.986,7.146-17.128,20.208-21.1c9.129-2.772,19.485-5.922,22.612-16.255
		c1.881-5.335,1.629-10.016-0.742-13.908c-5.33-8.765-19.914-10.823-32.776-12.624c-2.777-0.393-5.47-0.771-7.878-1.195
		c15.009-12.199,34.13-19.531,54.936-19.531c3.281,0,6.511,0.2,9.689,0.555c6.184,9.941,3.038,20.293-0.033,30.312
		c-3.705,12.079-7.906,25.768,9.409,34.229c12.073,5.634,28.208,6.455,43.688,6.455c3.258,0,6.482-0.042,9.638-0.07
		c4.699-0.056,9.175-0.098,13.403-0.032c0.943,5.134,1.461,10.407,1.461,15.803c0,0.909-0.028,1.815-0.061,2.711
		C547.886,453.831,529.984,452.076,516.598,450.074z M252.598,189.903c8.501-53.2-27.867-103.413-81.072-111.921
		c-53.203-8.499-103.416,27.867-111.917,81.067c-8.508,53.219,27.865,103.437,81.067,111.936
		C193.877,279.492,244.09,243.122,252.598,189.903z M143.568,252.895c-43.235-6.917-72.78-47.707-65.871-90.947
		c6.907-43.227,47.695-72.783,90.934-65.867c43.222,6.907,72.781,47.702,65.869,90.934
		C227.589,230.259,186.794,259.802,143.568,252.895z M42.068,120.471c0,0,0,0-0.019,0c-0.458-0.07-0.922-0.214-1.36-0.443
		l-23.434-11.98c-1.696-0.858-2.604-2.637-2.49-4.406c0.044-0.602,0.205-1.194,0.497-1.754c1.144-2.25,3.909-3.137,6.156-1.993
		l23.457,11.985c2.24,1.152,3.139,3.916,1.981,6.165C45.94,119.85,43.982,120.774,42.068,120.471z M82.299,38.857
		c-1.146-2.245-0.252-5.012,2.014-6.156c2.254-1.144,5.026-0.257,6.17,2.012l11.922,23.48c1.144,2.254,0.25,5.012-2.016,6.156
		c-0.889,0.458-1.874,0.593-2.786,0.443c-1.396-0.219-2.672-1.087-3.365-2.45l-0.014-0.014L82.299,38.857z M242.844,86.686
		c-1.783-1.797-1.773-4.695,0.019-6.483l18.628-18.598c1.792-1.792,4.707-1.778,6.485,0.019c1.783,1.783,1.773,4.681-0.023,6.473
		L249.324,86.69c-1.081,1.078-2.562,1.503-3.958,1.274C244.431,87.82,243.56,87.4,242.844,86.686z M277.374,154.181
		c-0.397-2.506,1.318-4.844,3.808-5.232l26.004-4.098c2.512-0.396,4.85,1.33,5.246,3.822c0.378,2.497-1.32,4.845-3.831,5.236
		l-26.005,4.093c-0.483,0.08-0.971,0.075-1.428,0C279.261,157.691,277.684,156.188,277.374,154.181z M141.043,299.985l-4.156,25.995
		c-0.396,2.502-2.74,4.201-5.248,3.8c-2.495-0.397-4.2-2.749-3.804-5.251l4.158-25.99c0.401-2.502,2.737-4.201,5.25-3.795
		c0.616,0.094,1.195,0.312,1.71,0.63C140.467,296.321,141.339,298.114,141.043,299.985z M69.639,260.422
		c0.889,0.887,1.34,2.072,1.33,3.249c0,1.167-0.445,2.348-1.349,3.234l-18.629,18.584c-1.076,1.083-2.562,1.503-3.953,1.283
		c-0.936-0.153-1.816-0.573-2.532-1.292c-0.89-0.896-1.34-2.067-1.328-3.244c0-0.583,0.114-1.167,0.348-1.722
		c0.21-0.55,0.556-1.064,1.003-1.512l18.629-18.598C64.965,258.612,67.861,258.635,69.639,260.422z M35.126,192.932
		c0.38,2.492-1.321,4.845-3.83,5.232v0.005l-26.002,4.079c-0.483,0.075-0.971,0.075-1.428-0.004
		c-1.907-0.303-3.505-1.797-3.815-3.808c-0.096-0.63-0.051-1.242,0.096-1.825c0.422-1.727,1.86-3.127,3.734-3.416l26.002-4.088
		C32.396,188.713,34.744,190.439,35.126,192.932z M171.44,47.137v-0.019l4.151-25.986c0.401-2.506,2.739-4.205,5.253-3.799
		c2.504,0.396,4.195,2.744,3.799,5.246l-4.161,26.01c-0.397,2.497-2.74,4.201-5.248,3.799
		C172.745,51.986,171.039,49.639,171.44,47.137z M325.183,415.09c0.187,0.583,0.084,1.223-0.275,1.727
		c-0.359,0.499-0.929,0.808-1.545,0.831l-19.952,0.593c-0.098,0-0.2,0-0.289-0.01c-0.957-0.117-1.713-0.91-1.736-1.899
		c-0.032-1.092,0.821-2.002,1.914-2.035l14.435-0.425c-18.243-6.193-25.192-21.823-31.932-36.981
		c-5.857-13.198-11.927-26.85-25.543-34.284c-6.959-4.094-14.237-6.604-21.268-9.026c-17.954-6.18-34.919-12.018-32.726-42.914
		l3.937,0.285c-1.979,27.867,12.167,32.729,30.07,38.896c7.231,2.492,14.692,5.059,21.935,9.324
		c14.734,8.042,21.077,22.309,27.202,36.114c6.729,15.153,13.129,29.51,30.145,35.008l-4.358-13.992
		c-0.327-1.036,0.256-2.146,1.292-2.474c1.041-0.322,2.147,0.262,2.469,1.298L325.183,415.09z M371.597,367.84
		c0.224,0.574,0.168,1.219-0.154,1.746c-0.322,0.522-0.868,0.872-1.484,0.933l-19.854,2.017c-0.149,0.014-0.299,0.014-0.438-0.005
		c-0.9-0.107-1.639-0.826-1.727-1.76c-0.112-1.087,0.676-2.053,1.759-2.16l13.922-1.414c-2.529-1.783-5.399-2.997-8.392-4.267
		c-5.357-2.268-10.902-4.615-14.743-10.463c-2.328-3.505-3.267-6.968-4.247-10.646c-0.471-1.746-0.961-3.585-1.643-5.517
		c-2.482-7.075-4.635-7.444-10.375-8.438c-1.979-0.336-4.224-0.728-6.921-1.461c-13.609-3.724-15.317-9.343-17.292-15.854
		c-1.04-3.454-2.23-7.365-5.53-11.757c-3.785-4.97-9.191-6.179-14.911-7.453c-6.926-1.549-14.081-3.146-18.071-11.588
		c-2.049-4.2-3.12-8.209-4.056-11.738c-2.371-8.956-3.565-13.45-17.574-11.686l-0.497-3.92c17.429-2.18,19.499,5.586,21.889,14.594
		c0.894,3.356,1.902,7.164,3.794,11.038c3.178,6.725,8.833,7.985,15.378,9.446c5.864,1.315,12.526,2.805,17.193,8.923
		c3.729,4.966,5.083,9.423,6.165,13.003c1.844,6.048,3.053,10.043,14.548,13.188c2.516,0.677,4.662,1.051,6.553,1.382
		c6.132,1.06,10.179,1.76,13.44,11.015c0.71,2.034,1.228,3.962,1.723,5.801c0.938,3.5,1.75,6.516,3.729,9.493
		c3.188,4.858,7.953,6.87,12.989,9.007c3.066,1.298,6.193,2.638,9.063,4.645l-5.54-14.128c-0.396-1.013,0.107-2.16,1.12-2.553
		c1.013-0.406,2.161,0.103,2.558,1.111L371.597,367.84z M275.107,214.746l-1.419-3.785l0.917-0.35
		c0.151-0.056,3.78-1.405,7.756-0.924c1.988,0.233,3.741,0.887,5.213,1.928c3.104,2.226,4.807,6.044,5.068,11.364h0.056l0.065,0.994
		c-0.103,5.026,1.046,8.429,3.407,10.118c0.919,0.653,2.044,1.06,3.355,1.213c1.815,0.215,3.604-0.098,4.635-0.34l0.131-0.056
		c0.382-0.145,3.883-1.396,7.752-0.924c1.988,0.233,3.742,0.887,5.213,1.928c3.108,2.222,4.807,6.044,5.068,11.359h0.056
		l0.065,1.003c-0.103,5.017,1.051,8.424,3.416,10.114c0.91,0.653,2.04,1.06,3.352,1.213c1.815,0.215,3.607-0.098,4.639-0.341
		l0.117-0.056c0.154-0.056,3.78-1.404,7.757-0.924c1.987,0.233,3.747,0.887,5.218,1.928c3.107,2.226,4.807,6.048,5.068,11.383h0.051
		l0.061,0.98c-0.088,5.027,1.051,8.429,3.417,10.114c0.919,0.653,2.044,1.06,3.355,1.208c1.815,0.215,3.603-0.098,4.634-0.34
		l0.122-0.052c0.153-0.056,3.78-1.404,7.757-0.924c1.988,0.233,3.742,0.887,5.213,1.928c3.108,2.226,4.807,6.048,5.073,11.369h0.051
		l0.065,0.993c-0.098,5.022,1.046,8.425,3.412,10.114c0.91,0.653,2.044,1.06,3.351,1.209c1.807,0.214,3.594-0.094,4.63-0.341
		l0.135-0.057c0.388-0.14,3.889-1.395,7.748-0.929c1.992,0.233,3.747,0.887,5.218,1.933c3.108,2.227,4.812,6.049,5.073,11.388h0.047
		l0.064,0.976c-0.023,1.357,0.075,2.558,0.243,3.658l3.271-13.361c0.257-1.055,1.325-1.708,2.385-1.451
		c1.06,0.261,1.713,1.33,1.447,2.39l-4.971,20.302c-0.149,0.597-0.564,1.097-1.13,1.339c-0.569,0.247-1.218,0.22-1.754-0.084
		l-17.395-9.786c-0.089-0.052-0.173-0.107-0.248-0.164c-0.756-0.593-0.993-1.661-0.508-2.524c0.536-0.952,1.745-1.284,2.692-0.752
		l12.587,7.085l0.104,0.051c-0.388-1.395-0.631-2.936-0.719-4.652l-0.047,0.004l-0.07-0.998c0.098-5.036-1.045-8.447-3.412-10.118
		c-2.128-1.508-5.898-1.368-7.989-0.863l-0.117,0.046c-0.153,0.057-3.78,1.405-7.761,0.929c-1.984-0.237-3.743-0.891-5.214-1.932
		c-0.191-0.14-0.378-0.275-0.56-0.42c-2.758-2.264-4.275-5.946-4.518-10.958h-0.047l-0.07-0.98
		c0.103-5.036-1.045-8.443-3.406-10.113c-0.915-0.649-2.049-1.06-3.36-1.214c-1.815-0.215-3.612,0.098-4.645,0.35l-0.106,0.052
		c-0.154,0.056-3.781,1.4-7.757,0.929c-1.983-0.243-3.743-0.892-5.218-1.932c-0.196-0.14-0.393-0.294-0.565-0.434
		c-2.744-2.25-4.261-5.918-4.503-10.93h-0.047l-0.075-0.999c0.103-5.036-1.04-8.443-3.402-10.119
		c-2.138-1.512-5.899-1.367-7.989-0.868l-0.136,0.051c-0.383,0.145-3.883,1.391-7.747,0.924c-1.984-0.238-3.743-0.887-5.218-1.927
		c-0.201-0.145-0.388-0.29-0.565-0.434c-2.753-2.259-4.266-5.937-4.508-10.954h-0.047l-0.074-0.98
		c0.106-5.04-1.041-8.442-3.402-10.113c-0.915-0.649-2.045-1.055-3.361-1.213c-1.811-0.215-3.607,0.098-4.634,0.345l-0.126,0.051
		c-0.388,0.145-3.883,1.391-7.752,0.929c-1.979-0.243-3.738-0.891-5.213-1.932c-0.201-0.145-0.393-0.294-0.574-0.434
		c-2.74-2.25-4.257-5.932-4.494-10.949l-0.047-0.005l-0.08-0.98c0.107-5.041-1.04-8.443-3.399-10.114
		c-0.919-0.648-2.047-1.055-3.355-1.213c-2.969-0.354-5.82,0.686-5.851,0.691L275.107,214.746z"/>
</g>
<g>
</g>
<g>
</g>
<g>
</g>
<g>
</g>
<g>
</g>
<g>
</g>
<g>
</g>
<g>
</g>
<g>
</g>
<g>
</g>
<g>
</g>
<g>
</g>
<g>
</g>
<g>
</g>
<g>
</g>
</svg>
